PathFileType	4	(X/Y/Z)	E:\Qualisys_Data\Carbon_Farble_Plate\Data\Amateur_Runner\S2\T1\S2T1V13_c3d.trc
DataRate	CameraRate	NumFrames	NumMarkers	Units	OrigDataRate	OrigDataStartFrame	OrigNumFrames
200.000000	200.000000	4	39	mm	200.000000	38	308
Frame#	Time	LSHO			RSHO			LICST			RICST			LASIS			LHEEL			RASIS			LTROC			RTROC			SACR			LTH1			LSK4			LTH2			LTH3			RHM5			LSK2			LTH4			RTH1			LTOE			RTH2			RTH3			RTH4			LLEP			RLEP			LSK1			LSK3			RSK1			LHM5			RSK2			LFT1			RSK3			RSK4			LLME			RLME			RTOE			RHEEL			RFT1			RFT2			LFT2			
		X1	Y1	Z1	X2	Y2	Z2	X3	Y3	Z3	X4	Y4	Z4	X5	Y5	Z5	X6	Y6	Z6	X7	Y7	Z7	X8	Y8	Z8	X9	Y9	Z9	X10	Y10	Z10	X11	Y11	Z11	X12	Y12	Z12	X13	Y13	Z13	X14	Y14	Z14	X15	Y15	Z15	X16	Y16	Z16	X17	Y17	Z17	X18	Y18	Z18	X19	Y19	Z19	X20	Y20	Z20	X21	Y21	Z21	X22	Y22	Z22	X23	Y23	Z23	X24	Y24	Z24	X25	Y25	Z25	X26	Y26	Z26	X27	Y27	Z27	X28	Y28	Z28	X29	Y29	Z29	X30	Y30	Z30	X31	Y31	Z31	X32	Y32	Z32	X33	Y33	Z33	X34	Y34	Z34	X35	Y35	Z35	X36	Y36	Z36	X37	Y37	Z37	X38	Y38	Z38	X39	Y39	Z39	

39	0.19	-1603.427001953125	1432.51806640625	-449.4970703125	-1585.652465820312	1395.625610351562	-131.6171417236328	-1686.946899414062	964.2753295898438	-451.8600158691406	-1679.285278320312	955.5238037109376	-145.6033020019531	-1630.563720703125	915.1217041015624	-435.843505859375	-1973.83251953125	395.8683471679688	-351.9702453613281	-1617.614379882812	912.234619140625	-172.649658203125	-1757.649780273438	837.5175170898438	-445.6594848632812	-1764.268310546875	854.509521484375	-147.8805694580078	-1771.864135742188	1006.828491210938	-299.5207824707031	-1570.300659179688	625.565185546875	-477.8818969726562	-1799.296142578125	440.4888305664062	-444.5096740722656	-1651.51171875	604.4132080078125	-476.5880737304688	-1544.505859375	526.5806274414062	-462.9449462890625	-1756.830688476562	68.39425659179688	-198.6811065673828	-1706.261840820312	470.3710021972656	-465.7200927734375	-1628.187377929688	507.7799682617188	-457.6455993652344	-1623.195922851562	587.2548217773438	-155.4564971923828	-1911.423095703125	163.9880218505859	-390.5988159179688	-1700.266723632812	586.9044799804688	-152.7310791015625	-1622.747192382812	490.0765686035156	-185.6523284912109	-1702.875122070312	492.5550842285156	-176.8373718261719	-1583.978759765625	472.0825500488281	-464.38720703125	-1670.597778320312	456.0265197753906	-177.8197631835938	-1680.432006835938	394.0118713378906	-457.9186401367188	-1776.035522460938	365.0055847167969	-444.5704040527344	-1686.612426757812	329.9725341796875	-189.2065124511719	-1951.767333984375	212.3583221435547	-447.7068176269531	-1751.649291992188	370.6144104003906	-166.7363433837891	-1991.17236328125	375.9483032226562	-320.9743041992188	-1739.343505859375	245.6535797119141	-202.6138458251953	-1805.380126953125	286.4826354980469	-180.9563598632812	-1951.539794921875	349.430419921875	-412.6539611816406	-1870.45947265625	115.9008331298828	-220.6617431640625	-1704.12939453125	66.65572357177734	-269.1902770996094	-1943.701782226562	113.2087326049805	-274.5230712890625	-1934.5439453125	81.88497161865234	-302.9567565917969	-1946.360229492188	88.15865325927734	-246.9864654541016	-2002.989013671875	388.0308837890625	-373.5628051757812
40	0.195	-1589.311645507812	1436.442016601562	-450.1368713378906	-1566.447021484375	1399.3330078125	-132.793701171875	-1670.06640625	967.83837890625	-451.7425842285156	-1660.16162109375	958.0657348632812	-146.0451965332031	-1613.034057617188	918.9149169921876	-435.0263061523438	-1950.347045898438	390.076904296875	-351.8271484375	-1599.4423828125	914.5772094726562	-173.0467071533203	-1739.748291015625	840.9164428710938	-446.079345703125	-1746.826538085938	857.2599487304688	-147.2397308349609	-1752.695556640625	1009.353149414062	-297.6394348144531	-1549.0146484375	631.4443969726562	-477.2882080078125	-1775.880859375	439.8177490234375	-443.8672485351562	-1630.782470703125	609.0796508789062	-476.3721923828125	-1521.812133789062	532.8907470703125	-461.7783203125	-1756.5908203125	69.05915069580078	-198.8942413330078	-1682.928344726562	472.24169921875	-464.5914611816406	-1604.934814453125	512.3096923828125	-456.6447448730469	-1614.905029296875	587.8162841796875	-155.4303131103516	-1877.2197265625	160.7739562988281	-390.9492797851562	-1691.166870117188	589.7200927734375	-152.5422973632812	-1616.7177734375	490.6521301269531	-186.2178497314453	-1696.096313476562	495.8771362304688	-176.4754486083984	-1560.786743164062	478.1015930175781	-463.7406921386719	-1665.95849609375	458.5628967285156	-178.0525817871094	-1655.25341796875	396.7369079589844	-457.1645202636719	-1750.249755859375	365.3846130371094	-444.6777038574219	-1682.9091796875	332.3940124511719	-188.810546875	-1919.232177734375	206.6061706542969	-447.900634765625	-1748.915771484375	373.4848327636719	-166.1409912109375	-1964.40087890625	368.4869689941406	-320.8516845703125	-1737.297485351562	247.5177001953125	-202.4492950439453	-1802.38330078125	289.3559265136719	-180.6212310791016	-1924.2880859375	343.9675598144531	-411.6911315917969	-1870.83740234375	118.9022979736328	-220.6228485107422	-1703.9814453125	66.46187591552734	-269.6673583984375	-1943.244506835938	116.3220291137695	-275.5668334960938	-1933.127807617188	83.82456970214844	-303.1913452148438	-1945.859375	91.21343231201172	-246.5537719726562	-1978.837036132812	380.1640930175781	-373.6004943847656
41	0.2	-1575.0390625	1439.93603515625	-450.3984985351562	-1547.543212890625	1403.041625976562	-133.8450469970703	-1653.331665039062	972.0159912109376	-451.5476989746094	-1641.35400390625	961.3276977539062	-146.4442443847656	-1596.40185546875	922.836181640625	-435.2972412109375	-1926.845336914062	383.7942810058594	-351.3580932617188	-1580.903564453125	916.9022827148438	-172.9080505371094	-1721.748779296875	845.1895141601562	-447.0412292480469	-1728.845092773438	859.9563598632812	-147.117431640625	-1734.724609375	1012.656616210938	-296.4309692382812	-1528.686767578125	637.7185668945312	-476.5682067871094	-1752.086181640625	439.2162475585938	-443.3438415527344	-1609.892578125	614.0027465820312	-475.6866149902344	-1499.452758789062	540.2424926757812	-461.1365051269531	-1756.543701171875	69.05549621582031	-199.0146179199219	-1660.563598632812	474.33349609375	-463.6377258300781	-1582.139892578125	517.8208618164062	-455.796630859375	-1606.267456054688	589.5305786132812	-155.5858917236328	-1843.10400390625	156.9522705078125	-392.2023620605469	-1682.02978515625	593.2555541992188	-152.9214477539062	-1610.8369140625	492.7904663085938	-186.7701416015625	-1690.742797851562	499.6019897460938	-176.0950164794922	-1537.923217773438	484.6347961425781	-463.004638671875	-1660.8681640625	461.1231079101562	-178.0919036865234	-1629.351806640625	398.978515625	-456.8830261230469	-1723.868408203125	365.2044982910156	-443.4267272949219	-1679.425903320312	335.1829223632812	-188.9808349609375	-1885.761596679688	201.5582580566406	-447.7413330078125	-1745.438232421875	376.617919921875	-166.3099822998047	-1939.092041015625	359.5764770507812	-320.4855651855469	-1734.276733398438	250.5708465576172	-202.3919219970703	-1799.187866210938	292.6510925292969	-180.7225189208984	-1897.434326171875	337.6997375488281	-411.2021789550781	-1868.325073242188	122.4550476074219	-220.8433532714844	-1704.420166015625	66.1449966430664	-270.1463012695312	-1941.804077148438	119.1846237182617	-276.1084899902344	-1932.597412109375	87.22225952148438	-303.9500427246094	-1944.802124023438	95.36502838134766	-247.1111450195312	-1953.674438476562	371.3786926269531	-372.8177185058594
42	0.205	-1561.010864257812	1443.852905273438	-451.0074768066406	-1528.693237304688	1407.383178710938	-135.3055419921875	-1636.10302734375	975.937255859375	-451.3382568359375	-1621.863891601562	964.4161376953124	-146.5994110107422	-1578.674194335938	926.9662475585938	-434.8933410644531	-1899.975219726562	374.9185485839844	-349.3064880371094	-1562.353881835938	919.1458740234376	-172.9766387939453	-1704.05126953125	849.833984375	-447.9759826660156	-1711.6484375	863.3699951171875	-147.0278625488281	-1715.99072265625	1016.064636230469	-294.8157348632812	-1508.438354492188	644.4554443359375	-475.7952270507812	-1727.505249023438	437.7011413574219	-442.3615112304688	-1588.984741210938	619.0563354492188	-475.0292358398438	-1477.16015625	547.396728515625	-460.0320129394531	-1756.2421875	70.00190734863281	-199.7542114257812	-1637.319458007812	475.9122314453125	-462.3040771484375	-1560.121826171875	523.718017578125	-455.3010559082031	-1597.10009765625	592.789794921875	-156.1238861083984	-1807.735229492188	153.2682800292969	-392.9830322265625	-1672.983764648438	597.8731689453125	-152.7387084960938	-1603.990478515625	495.48828125	-186.6820983886719	-1683.651245117188	504.7651672363281	-176.1240386962891	-1514.95947265625	490.6314697265625	-462.165771484375	-1656.65673828125	464.9019470214844	-177.9362182617188	-1604.30126953125	401.6836242675781	-456.5303039550781	-1698.16455078125	364.9693603515625	-442.9906005859375	-1676.669311523438	338.5755004882812	-188.9176635742188	-1853.138916015625	196.0650177001953	-448.6946105957031	-1741.698608398438	380.3950500488281	-165.8656158447266	-1913.460815429688	350.9172058105469	-320.3370361328125	-1731.901123046875	254.7185516357422	-202.3414154052734	-1796.315185546875	297.1224975585938	-180.8334197998047	-1871.09521484375	331.4805603027344	-411.0722961425781	-1866.62255859375	127.2416000366211	-220.2758331298828	-1704.815795898438	65.82441711425781	-270.7425537109375	-1939.986083984375	123.6731948852539	-275.4088745117188	-1931.286865234375	91.38217163085938	-303.6854553222656	-1943.409790039062	99.23140716552734	-246.8165740966797	-1928.3701171875	361.9109191894531	-372.296630859375
